User Type,Username,Date,Text
[T],Tyr3ll,2012-07-12T20:24Z,We apologize 'cause we have accidently chosed a wrong section for a such film but don't worry it will be the exact movie as described up more anyway of course.
[T],Tyr3ll,2012-07-12T20:36Z,"General :

Complete name  :
Guet-Apens.(Remastered).(1994).(A.Baldwin&K.Basinger).DvDrip@AC3-5.1-(US-FR).mkv

Format                         : Matroska
Format version                 : Version 2
File size                      : 7.44 GiB
Duration                       : 1h 50mn
Overall bit rate mode          : Variable
Overall bit rate               : 9 629 Kbps
Writing application            : Lavf51.12.1
Writing library                : Lavf51.12.1

Video
ID                             : 1
Format                         : AVC
Format/Info                    : Advanced Video Codec
Format profile                 : Baseline@L3.1
Format settings, CABAC         : No
Format settings, ReFrames      : 1 frame
Format settings, GOP           : M=1, N=12
Codec ID                       : V_MPEG4/ISO/AVC
Duration                       : 1h 50mn
Bit rate mode                  : Variable
Bit rate                       : 8 157 Kbps
Maximum bit rate               : 12.0 Mbps
Width                          : 1 024 pixels
Height                         : 576 pixels
Display aspect ratio           : 16:9
Frame rate                     : 25.000 fps
Original frame rate            : 24.000 fps
Color space                    : YUV
Chroma subsampling             : 4:2:0
Bit depth                      : 8 bits
Scan type                      : Progressive
Bits/(Pixel*Frame)             : 0.553
Stream size                    : 6.30 GiB (85%)
Default                        : Yes
Forced                         : No

Audio #1
ID                             : 2
Format                         : AC-3
Format/Info                    : Audio Coding 3
Mode extension                 : CM (complete main)
Format settings, Endianness    : Big
Codec ID                       : A_AC3
Duration                       : 1h 50mn
Bit rate mode                  : Constant
Bit rate                       : 640 Kbps
Channel(s)                     : 6 channels
Channel positions              : Front: L C R, Side: L R, LFE
Sampling rate                  : 44.1 KHz
Bit depth                      : 16 bits
Compression mode               : Lossy
Stream size                    : 506 MiB (7%)
Default                        : Yes
Forced                         : No

Audio #2
ID                             : 3
Format                         : AC-3
Format/Info                    : Audio Coding 3
Mode extension                 : CM (complete main)
Format settings, Endianness    : Big
Codec ID                       : A_AC3
Duration                       : 1h 50mn
Bit rate mode                  : Constant
Bit rate                       : 640 Kbps
Channel(s)                     : 6 channels
Channel positions              : Front: L C R, Side: L R, LFE
Sampling rate                  : 44.1 KHz
Bit depth                      : 16 bits
Compression mode               : Lossy
Stream size                    : 506 MiB (7%)
Default                        : Yes
Forced                         : No
"
[T],Tyr3ll,2012-07-13T13:01Z,"you can contact me to :
tyrell.tpb@gmail.com
to get the exact list of trackers i use for seeding...
It may help you a bit...
regards"
